<?xml version="1.0" standalone="no"?>
<!DOCTYPE svg PUBLIC "-//W3C//DTD SVG 20010904//EN"
 "http://www.w3.org/TR/2001/REC-SVG-20010904/DTD/svg10.dtd">
<svg version="1.0" xmlns="http://www.w3.org/2000/svg"
 width="754.000000pt" height="754.000000pt" viewBox="0 0 754.000000 754.000000"
 preserveAspectRatio="xMidYMid meet">
<metadata>
Created by potrace 1.11, written by Peter Selinger 2001-2013
</metadata>
<g transform="translate(0.000000,754.000000) scale(0.100000,-0.100000)"
fill="#000000" stroke="none">
<path d="M3560 7534 c-19 -2 -91 -9 -160 -15 -588 -50 -1200 -269 -1715 -612
-988 -658 -1618 -1758 -1673 -2923 l-7 -144 628 0 627 0 0 48 c0 71 27 284 50
397 55 270 164 547 313 795 141 235 412 534 632 698 356 265 756 429 1190 487
160 22 479 22 640 0 547 -73 1030 -308 1423 -689 l103 -100 -303 -303 -303
-303 998 0 997 0 0 997 0 998 -252 -252 -253 -252 -130 127 c-588 571 -1343
927 -2180 1027 -123 15 -549 28 -625 19z"/>
<path d="M3221 4758 c-14 -7 -34 -29 -45 -48 -21 -35 -21 -45 -21 -953 l0
-919 28 -24 c35 -30 75 -30 148 0 65 26 1597 876 1647 913 42 32 44 78 5 115
-23 20 -1456 824 -1601 897 -54 28 -129 36 -161 19z"/>
<path d="M6270 3683 c0 -138 -51 -445 -102 -613 -154 -510 -474 -970 -893
-1285 -376 -282 -798 -448 -1264 -496 -177 -18 -494 -7 -671 24 -349 62 -662
187 -962 386 -131 87 -305 230 -403 330 l-50 51 305 305 305 305 -1003 0
-1002 0 0 -995 c0 -547 3 -995 7 -995 5 0 119 111 255 247 l248 247 117 -115
c585 -572 1321 -924 2168 -1036 190 -25 678 -25 870 0 300 39 502 85 760 171
1347 450 2329 1625 2535 3029 15 108 40 394 40 469 0 17 -34 18 -630 18 l-630
0 0 -47z"/>
</g>
</svg>
